<svg xmlns="http://www.w3.org/2000/svg" width="121.226" height="121.226" viewBox="0 0 121.226 121.226"><defs><style>.a{fill:#1976d2;}.b{fill:#fafafa;}</style></defs><path class="a" d="M106.073,0H15.153A15.168,15.168,0,0,0,0,15.153v90.919a15.168,15.168,0,0,0,15.153,15.153h90.919a15.168,15.168,0,0,0,15.153-15.153V15.153A15.168,15.168,0,0,0,106.073,0Z"/><path class="b" d="M248.825,133.883H229.883V118.73c0-4.182,3.394-3.788,7.577-3.788h7.577V96H229.883a22.728,22.728,0,0,0-22.73,22.73v15.153H192v18.942h15.153V194.5h22.73V152.825h11.365Z" transform="translate(-146.54 -73.27)"/></svg>