<svg xmlns="http://www.w3.org/2000/svg" width="149.706" height="114.034" viewBox="0 0 149.706 114.034"><defs><style>.a{fill:#fff5f5;}.b{fill:#e3e7ea;}.c{fill:#00a66c;}.d{fill:#f03800;}.e{fill:#cd0000;}.f{fill:#ff641a;}</style></defs><path class="a" d="M153.391,143.318l8.772,46.306-8.772,42.553H38.772L30,190.558l8.772-47.239c-2.9-2.179,15.85-3.457,28.274,5.87,15.3,11.483,25.814,34.518,29.035,36.937.5-.374,2.448-15.009,18.538-27.089C126.908,149.811,155.047,142.075,153.391,143.318Z" transform="translate(-21.228 -118.143)"/><path class="b" d="M313.31,235.64l8.772-42.553-8.772-46.306c1.656-1.244-26.483,6.492-38.771,15.717C258.447,174.578,256.5,189.214,256,189.588V235.64Z" transform="translate(-181.147 -121.606)"/><g transform="translate(110.939 40.703)"><path class="c" d="M379.979,200.2l-.535.4Z" transform="translate(-379.413 -200.204)"/></g><g transform="translate(0 10.965)"><path class="d" d="M17.544,98.5V201.569H13.158A13.14,13.14,0,0,1,0,188.412V100.693A4.268,4.268,0,0,1,.088,99.64Z" transform="translate(0 -98.5)"/></g><g transform="translate(132.163 12.105)"><path class="e" d="M469.544,103.453v87.719a13.14,13.14,0,0,1-13.158,13.158H452v-94.3l17.456-7.632A4.267,4.267,0,0,1,469.544,103.453Z" transform="translate(-452 -102.4)"/></g><g transform="translate(0.088 0)"><path class="f" d="M149.831,73.105c-86.785,65.114,12.428-9.544-74.766,55.877-7.615-5.713,27.293,20.7-74.766-55.877A13.046,13.046,0,0,1,13.37,61L47.987,71.612l27.078,35.44L94.642,77.019,136.761,61A13.046,13.046,0,0,1,149.831,73.105Z" transform="translate(-0.3 -61)"/></g><path class="d" d="M256,128.982h0c6.121-4.592,64.553-48.214,74.766-55.877A13.046,13.046,0,0,0,317.7,61L275.577,77.019,256,107.052Z" transform="translate(-181.147 -61)"/><path class="a" d="M168.391,61l-61.7,46.052L45,61Z" transform="translate(-31.842 -61)"/><path class="b" d="M317.7,61H256v46.052Z" transform="translate(-181.147 -61)"/></svg>