<svg xmlns="http://www.w3.org/2000/svg" width="102.969" height="146.444" viewBox="0 0 102.969 146.444"><defs><style>.a{fill:#ffda2d;}.b{fill:#80aef8;}.c{fill:#4086f4;}.d{fill:#59c36a;}.e{fill:#00a66c;}.f{fill:#fdbf00;}.g{fill:#4175df;}.h{fill:#f03800;}</style></defs><g transform="translate(2.746 46.765)"><path class="a" d="M139.058,193.533l-15.719,24.3-15,6.419C99.5,214.126,90.062,202.113,85.6,186.925l8.981-16.7,14.444-6.722a28.417,28.417,0,0,0-.429,4.719,25.818,25.818,0,0,0,25.742,25.742A28.419,28.419,0,0,0,139.058,193.533Z" transform="translate(-85.6 -163.5)"/></g><path class="b" d="M269.535,64.532a28.079,28.079,0,0,0,.426-4.694A25.819,25.819,0,0,0,244.251,34.1h-.031a28.387,28.387,0,0,0-4.719.429L262.325,11.7a51.359,51.359,0,0,1,30.033,30.033L269.533,64.557C269.533,64.549,269.535,64.54,269.535,64.532Z" transform="translate(-192.735 -8.354)"/><path class="c" d="M304.159,41.733l-7.808,15.245-15.016,7.58c0-.009,0-.017,0-.026a28.079,28.079,0,0,0,.426-4.694A25.819,25.819,0,0,0,256.053,34.1h-.023V29.8l5.14-11.432L274.127,11.7A51.359,51.359,0,0,1,304.159,41.733Z" transform="translate(-204.537 -8.354)"/><g transform="translate(25.484 33.379)"><path class="d" d="M239.236,116.7l-22.825,22.824a26.005,26.005,0,0,1-20.594,20.594h0l-24.848,24.847-5.872,5.871c1.459,1.63,2.746,3.09,4.119,4.634,9.439,10.726,17.591,20.565,17.591,30a4.29,4.29,0,1,0,8.581,0c0-9.439,8.152-19.278,17.591-30,13.215-14.845,29.6-33.379,29.6-60.666A49.166,49.166,0,0,0,239.236,116.7Z" transform="translate(-165.098 -116.7)"/><path class="e" d="M304.16,116.7l-22.824,22.824h0a26.005,26.005,0,0,1-20.594,20.594h0l-4.71,4.71v64.936a4.248,4.248,0,0,0,4.281-4.289c0-9.439,8.152-19.278,17.591-30,13.215-14.845,29.6-33.379,29.6-60.666A49.166,49.166,0,0,0,304.16,116.7Z" transform="translate(-230.022 -116.7)"/></g><g transform="translate(51.493 76.798)"><path class="f" d="M256.031,273.211l4.711-4.711a28.494,28.494,0,0,1-4.711.428Z" transform="translate(-256.031 -268.5)"/></g><path class="c" d="M183.288,3.346,160.463,26.171a26.042,26.042,0,0,0-13.472,7.122L133.72,27.744,128.8,15.1A51.006,51.006,0,0,1,165.182,0,49.166,49.166,0,0,1,183.288,3.346Z" transform="translate(-113.698)"/><path class="g" d="M256.031,21.445l18.1-18.1A49.16,49.16,0,0,0,256.031,0V21.445Z" transform="translate(-204.538 -0.002)"/><path class="h" d="M109.293,70.991a26.046,26.046,0,0,0-7.122,13.472L78.746,107.888A64.779,64.779,0,0,1,76,89.182,51,51,0,0,1,91.1,52.8Z" transform="translate(-76 -37.698)"/></svg>