<svg xmlns="http://www.w3.org/2000/svg" xmlns:xlink="http://www.w3.org/1999/xlink" width="126.338" height="126.338" viewBox="0 0 126.338 126.338"><defs><style>.a{fill:url(#a);}.b{fill:url(#b);}.c{fill:url(#c);}</style><linearGradient id="a" x1="0.5" y1="0.008" x2="0.5" y2="0.998" gradientUnits="objectBoundingBox"><stop offset="0" stop-color="#e09b3d"/><stop offset="0.3" stop-color="#c74c4d"/><stop offset="0.6" stop-color="#c21975"/><stop offset="1" stop-color="#7024c4"/></linearGradient><linearGradient id="b" y1="-0.451" y2="1.462" xlink:href="#a"/><linearGradient id="c" y1="-1.396" y2="6.586" xlink:href="#a"/></defs><path class="a" d="M88.7,0H37.637A37.679,37.679,0,0,0,0,37.637V88.7a37.679,37.679,0,0,0,37.637,37.637H88.7A37.679,37.679,0,0,0,126.338,88.7V37.637A37.68,37.68,0,0,0,88.7,0Zm24.927,88.7A24.927,24.927,0,0,1,88.7,113.628H37.637A24.927,24.927,0,0,1,12.71,88.7V37.637A24.927,24.927,0,0,1,37.637,12.71H88.7a24.927,24.927,0,0,1,24.927,24.927V88.7Z" transform="translate(0 0)"/><path class="b" d="M170.532,133a37.532,37.532,0,1,0,37.532,37.531A37.574,37.574,0,0,0,170.532,133Zm0,60.465a22.933,22.933,0,1,1,22.933-22.933A22.933,22.933,0,0,1,170.532,193.465Z" transform="translate(-107.363 -107.363)"/><circle class="c" cx="6.583" cy="6.583" r="6.583" transform="translate(90.062 23.425)"/></svg>