<svg xmlns="http://www.w3.org/2000/svg" width="140" height="140" viewBox="0 0 140 140"><defs><style>.a{fill:#2196f3;}.b{fill:#fafafa;}</style></defs><g transform="translate(-0.306 0.188)"><circle class="a" cx="70" cy="70" r="70" transform="translate(0.306 -0.188)"/><path class="b" d="M186.227,165.741a48.208,48.208,0,0,1-21.351-4.882,4.374,4.374,0,0,0-5.851,2.026l-3.144,6.506A61.487,61.487,0,0,1,133.2,146.712l6.515-3.144a4.374,4.374,0,0,0,2.026-5.851,48.043,48.043,0,0,1-4.89-21.351A4.368,4.368,0,0,0,132.487,112h-16.12A4.368,4.368,0,0,0,112,116.366a74.31,74.31,0,0,0,74.227,74.227,4.368,4.368,0,0,0,4.366-4.366v-16.12A4.368,4.368,0,0,0,186.227,165.741Z" transform="translate(-81.466 -81.452)"/></g></svg>