<svg xmlns="http://www.w3.org/2000/svg" width="151.167" height="151.167" viewBox="0 0 151.167 151.167"><defs><style>.a{fill:#e5e5e5;}.b,.d{fill:#fff;}.c{fill:#64b161;}.d{fill-rule:evenodd;}</style></defs><path class="a" d="M3.231,151.167A3.221,3.221,0,0,1,.115,147.1l9.87-35.886A74.753,74.753,0,0,1,.6,74.931C.622,33.613,34.393,0,75.887,0a75.123,75.123,0,0,1,75.281,74.991c-.019,41.319-33.789,74.934-75.281,74.934h-.032a75.7,75.7,0,0,1-34.834-8.516L4.05,151.062A3.263,3.263,0,0,1,3.231,151.167Zm0,0" transform="translate(0)"/><path class="b" d="M10.895,155.628l10.223-37.163A71.339,71.339,0,0,1,11.5,82.61c.016-39.544,32.343-71.715,72.065-71.715a71.906,71.906,0,0,1,72.064,71.773c-.017,39.542-32.348,71.719-72.064,71.719h-.031A72.265,72.265,0,0,1,49.1,145.656Zm39.972-22.956,2.189,1.291a60.024,60.024,0,0,0,30.487,8.311h.023a59.841,59.841,0,0,0,59.9-59.611A59.764,59.764,0,0,0,83.586,23.008a59.589,59.589,0,0,0-50.763,91.33l1.425,2.256-6.052,22Zm0,0" transform="translate(-7.678 -7.678)"/><path class="c" d="M19.344,159.107l9.871-35.878a68.856,68.856,0,0,1-9.289-34.613c.015-38.175,31.228-69.232,69.58-69.232a69.423,69.423,0,0,1,69.581,69.286c-.016,38.176-31.231,69.237-69.577,69.237h-.031a69.829,69.829,0,0,1-33.249-8.426Zm0,0" transform="translate(-13.633 -13.66)"/><g transform="translate(3.217 3.217)"><path class="b" d="M10.895,155.628l10.223-37.163A71.339,71.339,0,0,1,11.5,82.61c.016-39.544,32.343-71.715,72.065-71.715a71.906,71.906,0,0,1,72.064,71.773c-.017,39.542-32.348,71.719-72.064,71.719h-.031A72.265,72.265,0,0,1,49.1,145.656Zm39.972-22.956,2.189,1.291a60.024,60.024,0,0,0,30.487,8.311h.023a59.841,59.841,0,0,0,59.9-59.611A59.764,59.764,0,0,0,83.586,23.008a59.589,59.589,0,0,0-50.763,91.33l1.425,2.256-6.052,22Zm0,0" transform="translate(-10.895 -10.895)"/><path class="d" d="M151.136,144.753c-1.355-2.985-2.781-3.045-4.071-3.1-1.054-.045-2.261-.043-3.465-.043a6.674,6.674,0,0,0-4.822,2.243,20.019,20.019,0,0,0-6.332,14.949c0,8.821,6.482,17.342,7.386,18.54s12.512,19.873,30.9,27.058c15.278,5.972,18.386,4.784,21.7,4.485s10.7-4.336,12.207-8.522,1.508-7.772,1.055-8.523-1.658-1.195-3.467-2.091-10.7-5.234-12.359-5.831-2.864-.9-4.069.9-4.67,5.829-5.725,7.024-2.111,1.348-3.919.451a49.551,49.551,0,0,1-14.544-8.9,54.084,54.084,0,0,1-10.063-12.413c-1.054-1.792-.017-2.678.795-3.657a54.08,54.08,0,0,0,4.52-6.129,3.277,3.277,0,0,0-.15-3.14C156.258,157.162,152.743,148.3,151.136,144.753Zm0,0" transform="translate(-96.558 -103.019)"/></g></svg>